<?xml version="1.0" standalone="no"?><!DOCTYPE svg PUBLIC "-//W3C//DTD SVG 1.1//EN" "http://www.w3.org/Graphics/SVG/1.1/DTD/svg11.dtd"><svg t="1746004040037" class="icon" viewBox="0 0 1024 1024" version="1.1" xmlns="http://www.w3.org/2000/svg" p-id="1866" xmlns:xlink="http://www.w3.org/1999/xlink" width="200" height="200"><path d="M591.62819 902.095238c7.68 0 21.187048-1.633524 31.524572-4.973714 50.907429-16.481524 80.213333-70.582857 68.339809-124.684191l-1.219047-5.071238-45.372953-170.203428h179.736381c21.820952 0 43.398095-8.070095 58.026667-24.283429a74.118095 74.118095 0 0 0 17.846857-65.267809l-1.219047-4.973715-94.768762-337.432381a59.294476 59.294476 0 0 0-52.662857-43.154285L747.471238 121.904762H268.190476V580.022857c97.084952 21.016381 239.079619 279.28381 239.079619 279.28381 20.187429 27.40419 44.665905 42.812952 84.358095 42.812952zM121.904762 585.142857h73.142857V121.904762H121.904762z" p-id="1867"></path></svg>