<?xml version="1.0" standalone="no"?><!DOCTYPE svg PUBLIC "-//W3C//DTD SVG 1.1//EN" "http://www.w3.org/Graphics/SVG/1.1/DTD/svg11.dtd"><svg class="icon" width="200px" height="200.00px" viewBox="0 0 1024 1024" version="1.1" xmlns="http://www.w3.org/2000/svg"><path d="M513.131777 412.900981l-206.259644-53.955866c-8.395204-2.229784-16.928554 2.671852-19.159362 10.804067-2.238994 8.140401 2.719948 16.536628 11.06194 18.720364l206.244294 53.955866c1.359974 0.349971 2.734274 0.523933 4.048199 0.523932 6.92369 0 13.232372-4.514827 15.09786-11.326976 2.27481-8.162914-2.691295-16.551978-11.033287-18.721387z m46.141899 22.467711c0.580215-0.798179 1.070378-1.647523 1.787716-2.336208-0.732687 0.672312-1.220804 1.537006-1.787716 2.336208z m-1.663895 2.394537c-0.352017 0.784876-0.459464 1.657756-0.672313 2.509146 0.213871-0.838088 0.320295-1.710968 0.672313-2.509146z m8.631587-7.895831c-1.12973 0.412392-2.046612 1.095961-3.023869 1.73962 0.978281-0.627287 1.895163-1.314948 3.023869-1.73962z m392.652822 79.184457l-97.374748-166.104086c-0.188288-0.306992-0.485047-0.49528-0.685615-0.763386l-0.032746-0.050142a15.252379 15.252379 0 0 0-2.535753-2.829442c-0.459464-0.423649-0.916882-0.871857-1.437745-1.222851-1.144056-0.774643-2.397606-1.328251-3.696182-1.769296-0.459464-0.156566-0.840134-0.417509-1.329275-0.535189-0.034792-0.008186-0.070608-0.013303-0.107447-0.02149-0.066515-0.028653-0.127913-0.061398-0.213871-0.083911l-369.802394-84.556814a16.411785 16.411785 0 0 0-8.450463 0.350994l-263.800151 84.553744c-0.176009 0.053212-0.315178 0.187265-0.481977 0.2722l-0.060375 0.020466c-1.222851 0.441045-2.286066 1.172709-3.348258 1.89721-0.040932 0.027629-0.077771 0.061398-0.118704 0.089027-0.521886 0.310062-1.110287 0.488117-1.561565 0.886184L68.235081 458.334753c-5.583159 4.88731-6.822382 13.007245-2.925633 19.273972 2.912329 4.685719 8.04728 7.363711 13.394055 7.363712a16.598027 16.598027 0 0 0 5.461385-0.946559l82.946131-30.169113c8.097422-2.945075 12.215206-11.735275 9.198499-19.652595-3.018753-7.930623-12.034081-11.900028-20.123316-8.997932l-5.867638 2.143827 48.383964-42.503023V788.757255c0 6.984065 4.844332 13.071713 11.779277 14.803147l356.421642 88.830141c1.555425 0.50142 3.197832 0.769526 4.872985 0.769526 0.146333 0 0.292666-0.013303 0.437975-0.017396-0.137123 0.00307-0.273223 0.017396-0.409323 0.017396 0.176009 0 0.353041-0.01535 0.528026-0.021489 0.243547-0.008186 0.484024-0.011256 0.727571-0.028653l0.010233-0.001023h-0.001023l0.011256-0.001023-0.011256 0.001023c0.115634-0.010233 0.229221-0.028653 0.34383-0.040932a15.483646 15.483646 0 0 0 3.431146-0.728594c0.184195-0.059352 0.363274-0.137123 0.546446-0.202615l266.937608-88.917122c6.355755-2.104941 10.602476-7.92653 10.602476-14.46034V563.41602l0.017396-0.00614v-0.00614l95.480608-32.296567c4.40124-1.49812 7.91425-4.818749 9.534144-9.094122a15.041578 15.041578 0 0 0-1.069355-12.961196z m-728.938868-147.437957l-7.602141 2.436492-23.6527 20.779256v-0.03377l23.623024-20.744463 7.630794-2.448772 0.001023 0.011257z m327.802838 509.508249z m8.912997-441.48397c-0.140193 0.039909-0.255827 0.152473-0.39295 0.222058l-0.021489 0.007163c-1.115404 0.424672-2.061962 1.095961-3.009544 1.73962-0.731664 0.468674-1.526773 0.843204-2.169409 1.424443-0.733711 0.688685-1.222851 1.538029-1.804089 2.336208-0.580215 0.789992-1.221828 1.515516-1.649569 2.394536-0.367367 0.798179-0.458441 1.672082-0.671289 2.509147-0.305969 1.088798-0.642636 2.140757-0.689708 3.305279v0.084934c-0.021489 0.13303-0.073678 0.265036-0.073678 0.400113v414.148392l-326.196247-81.301678V361.605711l248.835321-79.752392 312.926012 71.541383-225.083361 76.243475z m268.031523 108.279099c0.441045-0.128937 0.887206-0.239454 1.337461-0.329505-0.797156 0.165776-1.567705 0.401136-2.315742 0.679476 0.194428-0.072655 0.385786-0.151449 0.583284-0.215918l-135.592164 45.863561-62.49331-88.034009c-4.935406-6.909363-14.69877-8.662287-21.789259-3.834329-7.103792 4.798283-8.861832 14.331403-3.939728 21.271466l69.261456 97.552804c2.995217 4.179183 7.838525 6.565533 12.866029 6.565532 1.695618 0 3.435239-0.254803 5.116531-0.833994l125.904525-42.605354v-21.467941c0-3.168156 0.992607-6.098905 2.680039-8.534373a14.95562 14.95562 0 0 0-2.663666 8.534373v21.461801l-0.01535 0.004093v203.834409h0.01535l-236.2067 78.675873v0.013303l-15.137769 5.030574 15.137769-5.043877v-401.576051l253.335822-85.791945-6.447852-10.990309c-2.943029-5.037736-2.63092-11.032264 0.286526-15.647375-2.908236 4.613064-3.206018 10.601452-0.254804 15.632026l6.432503 10.990308 12.269441-4.155646c6.158257-2.091638 10.302647-7.677866 10.508332-13.95585-0.197498 6.28617-4.344958 11.891841-10.508332 13.972223l-12.269441 4.155646 81.57797 139.121548-87.678921 29.65746z m4.593621-0.668219h-0.007163c0-0.002047 0.00307 0 0.007163 0z m-282.359856-96.977705c-0.288572 1.088798-0.656963 2.140757-0.685615 3.305279 0.044002-1.151219 0.397043-2.203178 0.685615-3.305279z"  /></svg>