<?xml version="1.0" standalone="no"?><!DOCTYPE svg PUBLIC "-//W3C//DTD SVG 1.1//EN" "http://www.w3.org/Graphics/SVG/1.1/DTD/svg11.dtd"><svg class="icon" width="200px" height="200.00px" viewBox="0 0 1024 1024" version="1.1" xmlns="http://www.w3.org/2000/svg"><path d="M256 138.666667a160 160 0 1 0 0 320h638.549333c26.197333 0 41.813333-29.184 27.306667-50.944l-5.674667-8.490667a181.333333 181.333333 0 0 1 0-201.130667l5.632-8.490666a32.768 32.768 0 0 0-27.264-50.944H256zM160 298.666667A96 96 0 0 1 256 202.666667h585.301333a245.461333 245.461333 0 0 0 0 192H256A96 96 0 0 1 160 298.666667zM768 565.333333a160 160 0 1 1 0 320H129.450667a32.768 32.768 0 0 1-27.306667-50.944l5.674667-8.448a181.333333 181.333333 0 0 0 0-201.216l-5.632-8.448a32.768 32.768 0 0 1 27.264-50.944H768zM864 725.333333A96 96 0 0 0 768 629.333333H182.741333a245.461333 245.461333 0 0 1 0 192H768A96 96 0 0 0 864 725.333333z" fill="#333333" /></svg>